<?xml version="1.0" encoding="UTF-8" standalone="no"?>
<!DOCTYPE svg PUBLIC "-//W3C//DTD SVG 1.1//EN"
 "http://www.w3.org/Graphics/SVG/1.1/DTD/svg11.dtd">
<!-- Generated by graphviz version 2.34.0 (20131203.1501)
 -->
<!-- Title: controllers_diagram Pages: 1 -->
<svg width="444pt" height="383pt"
 viewBox="0.00 0.00 443.95 382.60" xmlns="http://www.w3.org/2000/svg" xmlns:xlink="http://www.w3.org/1999/xlink">
<g id="graph0" class="graph" transform="scale(1 1) rotate(0) translate(4 378.6)">
<title>controllers_diagram</title>
<polygon fill="white" stroke="white" points="-4,4 -4,-378.6 439.947,-378.6 439.947,4 -4,4"/>
<!-- _diagram_info -->
<g id="node1" class="node"><title>_diagram_info</title>
<text text-anchor="start" x="238" y="-230" font-family="Times,serif" font-size="13.00">Controllers diagram</text>
<text text-anchor="start" x="238" y="-214.4" font-family="Times,serif" font-size="13.00">Date: Dec 04 2013 &#45; 00:05</text>
<text text-anchor="start" x="238" y="-198.8" font-family="Times,serif" font-size="13.00">Migration version: 20131011115214</text>
<text text-anchor="start" x="238" y="-183.2" font-family="Times,serif" font-size="13.00">Generated by RailRoady 1.1.1</text>
<text text-anchor="start" x="238" y="-167.6" font-family="Times,serif" font-size="13.00">http://railroady.prestonlee.com</text>
</g>
<!-- ApplicationController -->
<g id="node2" class="node"><title>ApplicationController</title>
<path fill="none" stroke="black" d="M58,-276.5C58,-276.5 173.642,-276.5 173.642,-276.5 179.642,-276.5 185.642,-282.5 185.642,-288.5 185.642,-288.5 185.642,-362.1 185.642,-362.1 185.642,-368.1 179.642,-374.1 173.642,-374.1 173.642,-374.1 58,-374.1 58,-374.1 52,-374.1 46,-368.1 46,-362.1 46,-362.1 46,-288.5 46,-288.5 46,-282.5 52,-276.5 58,-276.5"/>
<text text-anchor="middle" x="115.821" y="-356.1" font-family="Times,serif" font-size="14.00">ApplicationController</text>
<polyline fill="none" stroke="black" points="46,-349.3 185.642,-349.3 "/>
<polyline fill="none" stroke="black" points="46,-325.3 185.642,-325.3 "/>
<polyline fill="none" stroke="black" points="46,-301.3 185.642,-301.3 "/>
<text text-anchor="start" x="54" y="-283.3" font-family="Times,serif" font-size="14.00">_layout</text>
</g>
<!-- ArticlesController -->
<g id="node3" class="node"><title>ArticlesController</title>
<path fill="none" stroke="black" d="M12,-0.5C12,-0.5 112.842,-0.5 112.842,-0.5 118.842,-0.5 124.842,-6.5 124.842,-12.5 124.842,-12.5 124.842,-221.3 124.842,-221.3 124.842,-227.3 118.842,-233.3 112.842,-233.3 112.842,-233.3 12,-233.3 12,-233.3 6,-233.3 -1.42109e-14,-227.3 -1.42109e-14,-221.3 -1.42109e-14,-221.3 -1.42109e-14,-12.5 -1.42109e-14,-12.5 -1.42109e-14,-6.5 6,-0.5 12,-0.5"/>
<text text-anchor="middle" x="62.4209" y="-215.3" font-family="Times,serif" font-size="14.00">ArticlesController</text>
<polyline fill="none" stroke="black" points="-1.42109e-14,-208.5 124.842,-208.5 "/>
<polyline fill="none" stroke="black" points="-1.42109e-14,-184.5 124.842,-184.5 "/>
<text text-anchor="start" x="8" y="-166.5" font-family="Times,serif" font-size="14.00">collection_path</text>
<text text-anchor="start" x="8" y="-149.7" font-family="Times,serif" font-size="14.00">collection_url</text>
<text text-anchor="start" x="8" y="-132.9" font-family="Times,serif" font-size="14.00">edit_resource_path</text>
<text text-anchor="start" x="8" y="-116.1" font-family="Times,serif" font-size="14.00">edit_resource_url</text>
<text text-anchor="start" x="8" y="-99.3" font-family="Times,serif" font-size="14.00">new_resource_path</text>
<text text-anchor="start" x="8" y="-82.5" font-family="Times,serif" font-size="14.00">new_resource_url</text>
<text text-anchor="start" x="8" y="-65.7" font-family="Times,serif" font-size="14.00">resource_path</text>
<text text-anchor="start" x="8" y="-48.9" font-family="Times,serif" font-size="14.00">resource_url</text>
<polyline fill="none" stroke="black" points="-1.42109e-14,-42.1 124.842,-42.1 "/>
<text text-anchor="start" x="8" y="-24.1" font-family="Times,serif" font-size="14.00">_layout</text>
<text text-anchor="start" x="8" y="-7.3" font-family="Times,serif" font-size="14.00">permitted_params</text>
</g>
<!-- InheritedResources::Base -->
<g id="node4" class="node"><title>InheritedResources::Base</title>
<ellipse fill="none" stroke="black" cx="242.56" cy="-89.9862" rx="109.937" ry="18"/>
<text text-anchor="middle" x="242.56" y="-84.3862" font-family="Times,serif" font-size="14.00">InheritedResources::Base</text>
</g>
<!-- InheritedResources::Base&#45;&gt;ArticlesController -->
<g id="edge1" class="edge"><title>InheritedResources::Base&#45;&gt;ArticlesController</title>
<path fill="none" stroke="black" d="M161.186,-102.144C150.77,-103.7 140.197,-105.28 130.031,-106.799"/>
<polyline fill="none" stroke="black" points="125.076,-107.539 130.021,-106.8 "/>
</g>
</g>
</svg>
