<?xml version="1.0" encoding="UTF-8" standalone="no"?>
<!DOCTYPE svg PUBLIC "-//W3C//DTD SVG 1.1//EN"
 "http://www.w3.org/Graphics/SVG/1.1/DTD/svg11.dtd">
<!-- Generated by graphviz version 2.34.0 (20131203.1501)
 -->
<!-- Title: models_diagram Pages: 1 -->
<svg width="408pt" height="248pt"
 viewBox="0.00 0.00 408.00 248.00" xmlns="http://www.w3.org/2000/svg" xmlns:xlink="http://www.w3.org/1999/xlink">
<g id="graph0" class="graph" transform="scale(1 1) rotate(0) translate(4 244)">
<title>models_diagram</title>
<polygon fill="white" stroke="white" points="-4,4 -4,-244 404,-244 404,4 -4,4"/>
<!-- _diagram_info -->
<g id="node1" class="node"><title>_diagram_info</title>
<text text-anchor="start" x="7.02637" y="-223" font-family="Times,serif" font-size="13.00">Models diagram</text>
<text text-anchor="start" x="7.02637" y="-207.4" font-family="Times,serif" font-size="13.00">Date: Dec 04 2013 &#45; 00:05</text>
<text text-anchor="start" x="7.02637" y="-191.8" font-family="Times,serif" font-size="13.00">Migration version: 20131011115214</text>
<text text-anchor="start" x="7.02637" y="-176.2" font-family="Times,serif" font-size="13.00">Generated by RailRoady 1.1.1</text>
<text text-anchor="start" x="7.02637" y="-160.6" font-family="Times,serif" font-size="13.00">http://railroady.prestonlee.com</text>
</g>
<!-- Article -->
<g id="node2" class="node"><title>Article</title>
<path fill="none" stroke="black" d="M257.495,-0.6C257.495,-0.6 366.505,-0.6 366.505,-0.6 372.505,-0.6 378.505,-6.6 378.505,-12.6 378.505,-12.6 378.505,-105.4 378.505,-105.4 378.505,-111.4 372.505,-117.4 366.505,-117.4 366.505,-117.4 257.495,-117.4 257.495,-117.4 251.495,-117.4 245.495,-111.4 245.495,-105.4 245.495,-105.4 245.495,-12.6 245.495,-12.6 245.495,-6.6 251.495,-0.6 257.495,-0.6"/>
<text text-anchor="middle" x="312" y="-99.4" font-family="Times,serif" font-size="14.00">Article</text>
<polyline fill="none" stroke="black" points="245.495,-92.6 378.505,-92.6 "/>
<text text-anchor="start" x="253.495" y="-74.6" font-family="Times,serif" font-size="14.00">id :integer</text>
<text text-anchor="start" x="253.495" y="-57.8" font-family="Times,serif" font-size="14.00">title :string</text>
<text text-anchor="start" x="253.495" y="-41" font-family="Times,serif" font-size="14.00">body :text</text>
<text text-anchor="start" x="253.495" y="-24.2" font-family="Times,serif" font-size="14.00">created_at :datetime</text>
<text text-anchor="start" x="253.495" y="-7.4" font-family="Times,serif" font-size="14.00">updated_at :datetime</text>
</g>
<!-- ActiveRecord::Base -->
<g id="node3" class="node"><title>ActiveRecord::Base</title>
<ellipse fill="none" stroke="black" cx="312" cy="-197" rx="88.2033" ry="18"/>
<text text-anchor="middle" x="312" y="-191.4" font-family="Times,serif" font-size="14.00">ActiveRecord::Base</text>
</g>
<!-- ActiveRecord::Base&#45;&gt;Article -->
<g id="edge1" class="edge"><title>ActiveRecord::Base&#45;&gt;Article</title>
<path fill="none" stroke="black" d="M312,-178.776C312,-164.477 312,-143.22 312,-122.624"/>
<polyline fill="none" stroke="black" points="312,-117.407 312,-122.407 "/>
</g>
</g>
</svg>
